<svg xmlns="http://www.w3.org/2000/svg" viewBox="0 0 1053.18 173.09"><defs><style>.cls-1{fill:#78493c;}.cls-2{fill:#502f28;}.cls-3{fill:#a06450;}.cls-4{fill:#281414;}.cls-5{fill:#e0e0e2;}.cls-6{fill:#ccced0;}.cls-7{fill:#fff;}</style></defs><g id="Layer_2" data-name="Layer 2"><g id="Layer_1-2" data-name="Layer 1"><circle class="cls-1" cx="21.37" cy="21.37" r="21.37"/><circle class="cls-2" cx="151.72" cy="21.37" r="21.37"/><path class="cls-3" d="M86.55,0A86.55,86.55,0,0,0,0,86.55V130a5.07,5.07,0,0,0,5.07,5.07H16.29v33a5.08,5.08,0,0,0,5.08,5.07H151.73A5.07,5.07,0,0,0,156.8,168v-33H168a5.07,5.07,0,0,0,5.07-5.07V86.55A86.55,86.55,0,0,0,86.55,0Z"/><path class="cls-1" d="M151.72,173.09A5.07,5.07,0,0,0,156.8,168v-33H168a5.07,5.07,0,0,0,5.07-5.07V86.55A86.55,86.55,0,0,0,86.55,0V173.09Z"/><circle class="cls-2" cx="60.11" cy="43.09" r="5.07"/><circle class="cls-4" cx="112.98" cy="43.09" r="5.07"/><path class="cls-5" d="M102.84,65.18H94.69a8.15,8.15,0,1,1-16.29,0H70.25a32.23,32.23,0,0,0,0,64.46h32.59a32.23,32.23,0,0,0,0-64.46Z"/><path class="cls-6" d="M102.84,129.64a32.23,32.23,0,0,0,0-64.46H94.69a8.15,8.15,0,0,1-8.14,8.15v56.31Z"/><path class="cls-2" d="M89.26,97.05H83.83c-15.75,0-18.65-14.41-18.65-18.33,0-8.1,5.31-13.54,13.22-13.54H94.69c7.91,0,13.22,5.44,13.22,13.54C107.91,83.2,104.59,97.05,89.26,97.05Z"/><path class="cls-4" d="M86.55,97.05h2.71c15.33,0,18.65-13.85,18.65-18.33,0-8.1-5.31-13.54-13.22-13.54H86.55Z"/><path d="M159,33.15a43.1,43.1,0,0,0-6.46-6.21,7.73,7.73,0,0,0-4.05-1.32v0c-.3,0-.6,0-.91,0H105.08A12.64,12.64,0,0,0,93,34.5a21.34,21.34,0,0,0-9.07,0,12.64,12.64,0,0,0-12-8.89H31.44a1.37,1.37,0,0,1-.42.06,49,49,0,0,0-5.32.24c-2.55,1.92-4.87,4.26-7.27,6.21l-.15.11A12.58,12.58,0,0,0,17,40.69l3.7,18.47A21.07,21.07,0,0,0,41.31,76.05H60A21.07,21.07,0,0,0,80.58,59.16l3.17-15.82a12.69,12.69,0,0,1,9.5,0l3.16,15.82A21.07,21.07,0,0,0,117,76.05h18.67A21.07,21.07,0,0,0,156.3,59.16L160,40.69a12.51,12.51,0,0,0-.74-7.34A1.94,1.94,0,0,1,159,33.15Zm-83,5.9L72.34,57.51A12.65,12.65,0,0,1,60,67.64H41.31A12.65,12.65,0,0,1,28.94,57.51L25.25,39.05a4.2,4.2,0,0,1,4.12-5H71.91a4.2,4.2,0,0,1,4.12,5Zm75.72,0-3.7,18.46a12.63,12.63,0,0,1-12.36,10.13H117a12.63,12.63,0,0,1-12.36-10.13L101,39.05a4.2,4.2,0,0,1,4.12-5h42.54a4.2,4.2,0,0,1,4.13,5Z"/><path class="cls-7" d="M237,127.71Q222.08,114,222.08,89q0-17,7-30.09a49,49,0,0,1,20-20.14Q262,31.68,279,31.69a75,75,0,0,1,26.53,4.78L301,57a54.44,54.44,0,0,0-21.89-4.94q-15.09,0-23.88,9.48t-8.79,25.23q0,16.1,9.29,25t25.7,8.92a66.16,66.16,0,0,0,20.9-3.34L306,136.94a79.41,79.41,0,0,1-27.53,4.46Q251.93,141.4,237,127.71Z"/><path class="cls-7" d="M348.77,134.55a48.26,48.26,0,0,1-19.32-19.26q-6.88-12.42-6.88-28.51t6.8-28.66A47.67,47.67,0,0,1,348.6,38.86Q361,32,377.46,32q16.25,0,28.68,6.77a47.55,47.55,0,0,1,19.24,19q6.8,12.27,6.8,28.35,0,16.39-6.8,28.9a48.15,48.15,0,0,1-19.24,19.42q-12.43,6.93-28.68,6.93T348.77,134.55Zm50.49-22.77q8.21-9.39,8.21-25a41.75,41.75,0,0,0-3.73-18.07,27.73,27.73,0,0,0-10.61-12.1,31.2,31.2,0,0,0-31.34,0,27.69,27.69,0,0,0-10.62,12.1,41.89,41.89,0,0,0-3.73,18.07,41.35,41.35,0,0,0,3.73,18,28.52,28.52,0,0,0,10.53,12.1,28.91,28.91,0,0,0,15.76,4.3Q391,121.18,399.26,111.78Z"/><path class="cls-7" d="M454.4,139.33v-106q7.13-.15,21.06-.16,14.09,0,21.06.16,16.25.16,28.27,6.29A44.14,44.14,0,0,1,543.36,57q6.55,11.31,6.55,26.43,0,16.56-7.54,29.14a51.51,51.51,0,0,1-21.23,19.58q-13.68,7-31.75,7.17-5.81.15-17.41.16C464.12,139.49,458.27,139.43,454.4,139.33Zm34.82-20.06q16.75,0,26.37-9.4t9.61-25.79q0-14.82-8.2-22.77t-23.63-8H478.44v65.92Z"/><path class="cls-7" d="M572.3,33.28h67.16V53.35H596V74.52h36V94H596v25.32h43.45v20.06H572.3Z"/><path class="cls-4" d="M664.33,33.28h37q16.08,0,25.45,7.41t9.37,20.14q0,14.49-13.1,22.29,17.41,6.69,17.41,23.57a29.76,29.76,0,0,1-5,17,33.18,33.18,0,0,1-13.85,11.54,46.67,46.67,0,0,1-20,4.14H664.33Zm31.34,43.15c5.53,0,9.81-1.21,12.85-3.66s4.56-5.83,4.56-10.19q0-11.78-15.25-11.78H687.38V76.43ZM698,121.65q9,0,14-4A12.85,12.85,0,0,0,717.06,107a11.22,11.22,0,0,0-4.31-9.4q-4.32-3.35-12.44-3.34H687.38v27.38Z"/><path class="cls-4" d="M762.83,33.28H830V53.35H786.54V74.52h36V94h-36v25.32H830v20.06H762.83Z"/><path class="cls-4" d="M884.87,33.28h28.86l40.95,106.05H929.81l-8.95-24.2H877.41L869,139.33H844.41Zm28.86,62.1L898.8,54.78l-14.43,40.6Z"/><path class="cls-4" d="M970.93,33.28q5-.15,18.58-.16,13.75,0,18.73.16,18.91.64,28.19,8.84t9.29,22.05q0,11.79-6.22,20T1022.17,94.9a42.09,42.09,0,0,1,7.13,7.41q3.65,4.69,10.12,14.57,6.8,10.35,13.76,22.45h-27.86l-18.73-33.44q-3-5.25-5.39-6.61c-1.61-.9-4-1.35-7.22-1.35v41.4H970.93Zm33.33,47q8.46,0,13.35-4.14A13.86,13.86,0,0,0,1022.5,65q0-6.36-4.31-9.71t-12.6-3.35H994V80.26Z"/></g></g></svg>