<svg xmlns="http://www.w3.org/2000/svg" viewBox="0 0 1125.83 204.33"><defs><style>.cls-1{fill:#fff;}.cls-2{fill:#309f6b;}.cls-3{fill:#1e774a;}.cls-4{fill:#d94600;}</style></defs><g id="Layer_2" data-name="Layer 2"><g id="Layer_1-2" data-name="Layer 1"><path class="cls-1" d="M309.65,153.31q-14.92-13.68-14.93-38.69,0-17,7-30.09a49.1,49.1,0,0,1,20-20.15q12.93-7.08,29.85-7.08a75,75,0,0,1,26.53,4.78l-4.48,20.54a54.39,54.39,0,0,0-21.88-4.94q-15.11,0-23.88,9.47t-8.79,25.24q0,16.1,9.28,25t25.71,8.92A66.11,66.11,0,0,0,375,143l3.65,19.59A79.37,79.37,0,0,1,351.1,167Q324.57,167,309.65,153.31Z"/><path class="cls-1" d="M421.41,160.16a48.29,48.29,0,0,1-19.32-19.27q-6.88-12.42-6.88-28.5,0-16.24,6.8-28.66a47.72,47.72,0,0,1,19.24-19.27q12.44-6.84,28.85-6.84,16.25,0,28.69,6.76a47.55,47.55,0,0,1,19.23,19q6.8,12.27,6.8,28.35,0,16.39-6.8,28.9a48.13,48.13,0,0,1-19.23,19.42Q466.36,167,450.1,167T421.41,160.16Zm50.5-22.77q8.2-9.39,8.2-25a41.71,41.71,0,0,0-3.73-18.07,27.55,27.55,0,0,0-10.61-12.1,31.2,31.2,0,0,0-31.34,0,27.55,27.55,0,0,0-10.61,12.1,41.71,41.71,0,0,0-3.73,18.07,41.14,41.14,0,0,0,3.73,18,28.35,28.35,0,0,0,10.53,12.11,28.88,28.88,0,0,0,15.75,4.3Q463.69,146.79,471.91,137.39Z"/><path class="cls-1" d="M527,164.94v-106q7.13-.15,21.06-.16,14.1,0,21.06.16,16.25.16,28.27,6.29A44.11,44.11,0,0,1,616,82.62q6.54,11.3,6.55,26.43,0,16.56-7.55,29.14a51.55,51.55,0,0,1-21.22,19.58q-13.69,7-31.76,7.17-5.81.15-17.41.16Q532.85,165.1,527,164.94Zm34.82-20.06q16.75,0,26.37-9.4t9.62-25.79q0-14.82-8.21-22.77T566,79H551.09v65.93Z"/><path class="cls-1" d="M644.94,58.89H712.1V79H668.65v21.18h36v19.43h-36v25.32H712.1v20.06H644.94Z"/><path class="cls-1" d="M737,58.89h37q16.08,0,25.46,7.41t9.37,20.14q0,14.49-13.1,22.29,17.4,6.69,17.41,23.57a29.63,29.63,0,0,1-5,16.95,33,33,0,0,1-13.84,11.55,46.74,46.74,0,0,1-20,4.14H737ZM768.31,102q8.3,0,12.86-3.66a12.37,12.37,0,0,0,4.56-10.19q0-11.77-15.26-11.78H760V102Zm2.33,45.22q9,0,14-4a12.88,12.88,0,0,0,5.06-10.67,11.19,11.19,0,0,0-4.32-9.39q-4.3-3.34-12.43-3.34H760v27.38Z"/><path class="cls-1" d="M835.47,58.89h67.16V79H859.18v21.18h36v19.43h-36v25.32h43.45v20.06H835.47Z"/><path class="cls-1" d="M957.52,58.89h28.85l41,106.05h-24.88l-9-24.21H950.05l-8.45,24.21H917.06ZM986.37,121l-14.92-40.6L957,121Z"/><path class="cls-1" d="M1043.58,58.89q5-.15,18.57-.16t18.74.16q18.9.64,28.19,8.84t9.28,22q0,11.79-6.21,20t-17.33,10.75a42.45,42.45,0,0,1,7.13,7.41q3.65,4.7,10.11,14.57,6.8,10.35,13.77,22.45H1098l-18.74-33.44c-2-3.5-3.79-5.71-5.39-6.61s-4-1.35-7.21-1.35v41.4h-23.05Zm33.33,47c5.64,0,10.08-1.37,13.35-4.14a13.84,13.84,0,0,0,4.89-11.14q0-6.37-4.31-9.72t-12.61-3.34h-11.6v28.34Z"/><path class="cls-2" d="M0,124.09v-18c.44-.16.41-.55.44-.92a113.39,113.39,0,0,1,3.4-19.6A127.64,127.64,0,0,1,14,59.8a15.19,15.19,0,0,0,.87-1.28A115.94,115.94,0,0,1,40.73,27.27,138.47,138.47,0,0,1,59.8,14c.47-.21,1-.38,1.43-.62A115.19,115.19,0,0,1,99.16,1.09C101.48.76,103.88.92,106.1,0h17.54c.22.56.73.4,1.14.44a114.32,114.32,0,0,1,26.57,5.41,137.76,137.76,0,0,1,19.84,8.6L177.11,18a152.64,152.64,0,0,1,17.17,13.45q2.44,2.45,4.88,4.91A149.56,149.56,0,0,1,213,54.31l2.76,4.62a136.73,136.73,0,0,1,8.9,20.71,106.38,106.38,0,0,1,5,25.6c-.65-.61-1.33-1.2-2-1.84Q207.47,83.18,187.23,63c-.72-.72-1.29-1.7-2.47-1.8l0,0-.61-.9c-.31-.32-.65-.61-.93-1a19.65,19.65,0,0,0-32.73,3.13,12.82,12.82,0,0,0-2.2-.38q-16.6,0-33.22,0H91.28a69.46,69.46,0,0,0-9,.07l-2.68.24c-3.67-7-11.65-11.37-18.88-10.23-9,0-18,8.91-17.94,17.94a14.58,14.58,0,0,0,.34,6.2,20.74,20.74,0,0,0,7.27,11.24l.55.52h-.12V88l.93.57,0,0c.32,1.52,1.61,2.23,2.62,3.18q-.34,4-.7,8.12c-.59,5.35-1.23,10.7-1.78,16.06-.67,6.48-1.27,13-1.91,19.44a68,68,0,0,0-.95,9.45,10.12,10.12,0,0,0-.32,1.29q-1.77,17.13-3.53,34.27l-1,9.85-1.56,14.14-6.21-5.16-4.91-4.89A152.64,152.64,0,0,1,18,177.11l-3.57-5.91a6.68,6.68,0,0,0-.33-.82A115.64,115.64,0,0,1,1.09,131C.77,128.71.92,126.31,0,124.09Z"/><path class="cls-3" d="M187.9,204.27c-.9-3.41-.88-6.93-1.29-10.39-1-8.08-1.78-16.17-2.62-24.26-.81-7.8-1.56-15.6-2.38-23.39s-1.71-15.73-2.55-23.6q-1.22-11.46-2.37-22.94c-.34-3.26-.63-6.52-.93-9.78l1.16-.67C183.36,85.7,187,80.34,187.57,73c.34-4.26-.93-8.09-2.81-11.79,1.18.1,1.75,1.08,2.47,1.8q20.25,20.21,40.47,40.44c.63.64,1.31,1.23,2,1.84.14.31,0,.79.53.86v18.44c-.58.2-.41.71-.45,1.12A112.39,112.39,0,0,1,226.31,145a122.39,122.39,0,0,1-11.13,27.22c-1.89,2.91-3.72,5.87-5.69,8.73A111.14,111.14,0,0,1,187.9,204.27Z"/><path class="cls-2" d="M54.67,90.12l-.34,1.59c-1-.95-2.3-1.66-2.62-3.18A9.85,9.85,0,0,1,54.67,90.12Z"/><path class="cls-4" d="M50.81,88l.93.57Z"/><path class="cls-4" d="M184.78,61.18l-.61-.9Z"/><path class="cls-4" d="M50.38,87.59l.55.51Z"/><path class="cls-2" d="M78.68,106.55c-5.2-.19-8.41-3.53-7.47-7.8A6.48,6.48,0,0,1,84,99.81c0,.45,0,.9,0,1.35A7.44,7.44,0,0,1,78.68,106.55Z"/><path class="cls-2" d="M146.09,99.88a6.53,6.53,0,1,1,6.37,6.68A6.51,6.51,0,0,1,146.09,99.88Z"/><path class="cls-2" d="M115.08,128.37c-2.5-.36-4.71-1.61-7.12-2.26a10.34,10.34,0,0,1-4-3.94c-1.16-6.5,1.57-9.7,8.26-9.73.82,0,1.64-.07,2.46-.1,1.71,0,3.42,0,5.13,0a7.14,7.14,0,0,1,6.85,5.34,7,7,0,0,1-3.4,7.79A22.6,22.6,0,0,1,115.08,128.37Z"/></g></g></svg>