<?xml version="1.0" encoding="utf-8"?>
<!-- Generator: Adobe Illustrator 25.0.1, SVG Export Plug-In . SVG Version: 6.00 Build 0)  -->
<svg version="1.1" id="Layer_1" xmlns="http://www.w3.org/2000/svg" xmlns:xlink="http://www.w3.org/1999/xlink" x="0px" y="0px"
	 viewBox="0 0 250 250" style="enable-background:new 0 0 250 250;" xml:space="preserve">
<style type="text/css">
	.st0{fill:#309F6B;}
	.st1{fill:#1E774A;}
	.st2{fill:#D94600;}
</style>
<g id="Layer_2_1_">
	<g id="Layer_1-2">
		<path class="st0" d="M0,148.8v-19.5c0.5-0.2,0.4-0.6,0.5-1c0.6-7.2,1.8-14.3,3.7-21.3c2.7-9.7,6.4-19.1,11-28
			c0.3-0.4,0.7-0.9,0.9-1.4C23.5,64.7,33,53.2,44.2,43.7c6.5-5.4,13.4-10.2,20.7-14.4c0.5-0.2,1.1-0.4,1.6-0.7
			c12.8-6.8,26.8-11.3,41.2-13.3c2.5-0.4,5.1-0.2,7.5-1.2h19c0.2,0.6,0.8,0.4,1.2,0.5c9.8,0.8,19.5,2.8,28.8,5.9
			c7.4,2.5,14.6,5.7,21.5,9.3l6.4,3.9c6.6,4.4,12.8,9.3,18.6,14.6c1.8,1.8,3.5,3.6,5.3,5.3c5.5,6.1,10.5,12.6,15,19.5l3,5
			c3.8,7.2,7.1,14.7,9.7,22.5c2.9,9,4.8,18.3,5.4,27.8c-0.7-0.7-1.4-1.3-2.2-2c-14.6-14.6-29.2-29.3-43.9-43.9
			c-0.8-0.8-1.4-1.8-2.7-2l0,0l-0.7-1c-0.3-0.3-0.7-0.7-1-1.1c-7.4-9.2-20.8-10.7-30-3.3c-2.3,1.8-4.2,4.1-5.5,6.7
			c-0.8-0.2-1.6-0.3-2.4-0.4c-12,0-24,0-36.1,0H99.1c-3.3-0.2-6.5-0.2-9.8,0.1l-2.9,0.3c-4-7.6-12.6-12.3-20.5-11.1
			c-9.8,0-19.5,9.7-19.5,19.5c-0.4,2.2-0.2,4.5,0.4,6.7c1.2,4.8,4,9.1,7.9,12.2l0.6,0.6h-0.1v0l1,0.6l0,0c0.3,1.7,1.7,2.4,2.8,3.5
			c-0.2,2.9-0.5,5.8-0.8,8.8c-0.6,5.8-1.3,11.6-1.9,17.4c-0.7,7-1.4,14.1-2.1,21.1c-0.6,3.4-0.9,6.8-1,10.3
			c-0.1,0.5-0.3,0.9-0.3,1.4c-1.3,12.4-2.6,24.8-3.8,37.2L48,220.6L46.3,236l-6.7-5.6l-5.3-5.3c-5.3-5.9-10.2-12.1-14.7-18.7
			l-3.9-6.4c-0.1-0.3-0.2-0.6-0.4-0.9c-7.2-13.3-12-27.8-14.1-42.8C0.9,153.8,1,151.2,0,148.8z"/>
		<path class="st1" d="M204,235.8c-1-3.7-1-7.5-1.4-11.3c-1.1-8.8-1.9-17.6-2.8-26.3c-0.9-8.5-1.7-16.9-2.6-25.4s-1.9-17.1-2.8-25.6
			c-0.9-8.3-1.7-16.6-2.6-24.9c-0.4-3.5-0.7-7.1-1-10.6l1.3-0.7c7-3.8,10.9-9.7,11.6-17.6c0.4-4.6-1-8.8-3.1-12.8
			c1.3,0.1,1.9,1.2,2.7,2c14.7,14.6,29.3,29.3,43.9,43.9c0.7,0.7,1.4,1.3,2.2,2c0.2,0.3,0,0.9,0.6,0.9v20c-0.6,0.2-0.4,0.8-0.5,1.2
			c-0.6,7.1-1.9,14.1-3.8,20.9c-2.8,10.3-6.9,20.2-12.1,29.6c-2.1,3.2-4,6.4-6.2,9.5C220.9,220,213,228.6,204,235.8z"/>
		<path class="st0" d="M59.4,111.9l-0.4,1.7c-1.1-1-2.5-1.8-2.8-3.5C57.3,110.6,58.4,111.1,59.4,111.9z"/>
		<path class="st2" d="M55.2,109.6l1,0.6L55.2,109.6z"/>
		<path class="st2" d="M200.7,80.5l-0.7-1L200.7,80.5z"/>
		<path class="st2" d="M54.7,109.2l0.6,0.6L54.7,109.2z"/>
		<path class="st0" d="M85.4,129.7c-5.6-0.2-9.1-3.8-8.1-8.5c0.9-3.8,4.6-6.2,8.4-5.3c3.1,0.7,5.3,3.3,5.5,6.5c0,0.5,0,1,0,1.5
			C90.5,126.7,88.3,129,85.4,129.7z"/>
		<path class="st0" d="M158.6,122.5c0.1-3.9,3.3-7,7.3-6.9c3.9,0.1,7,3.3,6.9,7.3c-0.1,3.9-3.3,7-7.3,6.9c0,0,0,0,0,0
			C161.7,129.7,158.6,126.4,158.6,122.5C158.6,122.5,158.6,122.5,158.6,122.5z"/>
		<path class="st0" d="M125,153.4c-2.7-0.4-5.1-1.7-7.7-2.5c-1.8-1-3.3-2.5-4.3-4.3c-1.3-7.1,1.7-10.5,9-10.6c0.9,0,1.8-0.1,2.7-0.1
			c1.9,0,3.7,0,5.6,0c3.5,0,6.6,2.4,7.4,5.8c0.8,3.3-0.7,6.8-3.7,8.5C131.1,151.9,128.1,153,125,153.4z"/>
	</g>
</g>
</svg>
